# This file uses centimeters as units for non-parametric coordinates.

mtllib player.mtl
g default
v -15.000006 -7.500000 20.000000
v 0.000002 -7.500000 11.353598
v 14.999992 -7.500000 20.000000
v -15.000000 7.500000 20.000000
v -0.000012 7.500000 11.353598
v 15.000002 7.500000 20.000000
v -0.044082 7.500000 -20.000000
v 0.000000 7.500000 -20.000000
v 0.044077 7.500000 -20.000000
v -0.044072 -7.500000 -20.000000
v 0.000002 -7.500000 -20.000000
v 0.044079 -7.500000 -20.000000
vt 0.375000 0.000000
vt 0.500000 0.000000
vt 0.625000 0.000000
vt 0.375000 0.250000
vt 0.500000 0.250000
vt 0.625000 0.250000
vt 0.375000 0.500000
vt 0.500000 0.500000
vt 0.625000 0.500000
vt 0.375000 0.750000
vt 0.500000 0.750000
vt 0.625000 0.750000
vt 0.375000 1.000000
vt 0.500000 1.000000
vt 0.625000 1.000000
vt 0.875000 0.000000
vt 0.875000 0.250000
vt 0.125000 0.000000
vt 0.125000 0.250000
vn 0.499400 0.000000 0.866372
vn -0.000000 0.000000 1.000000
vn 0.000000 0.000000 1.000000
vn 0.499400 0.000000 0.866372
vn -0.499400 -0.000000 0.866372
vn -0.499400 -0.000000 0.866372
vn 0.000000 1.000000 0.000000
vn 0.000000 1.000000 -0.000000
vn 0.000000 1.000000 -0.000000
vn 0.000000 1.000000 0.000000
vn 0.000000 1.000000 -0.000000
vn 0.000000 1.000000 -0.000000
vn 0.000000 0.000000 -1.000000
vn 0.000000 0.000000 -1.000000
vn 0.000000 0.000000 -1.000000
vn 0.000000 0.000000 -1.000000
vn 0.000000 0.000000 -1.000000
vn 0.000000 0.000000 -1.000000
vn 0.000000 -1.000000 0.000000
vn 0.000000 -1.000000 -0.000000
vn 0.000000 -1.000000 -0.000000
vn 0.000000 -1.000000 0.000000
vn 0.000000 -1.000000 -0.000000
vn 0.000000 -1.000000 -0.000000
vn 0.936668 -0.000000 -0.350218
vn 0.936668 -0.000000 -0.350218
vn 0.936668 -0.000000 -0.350218
vn 0.936668 -0.000000 -0.350218
vn -0.936668 -0.000000 -0.350218
vn -0.936668 -0.000000 -0.350218
vn -0.936668 -0.000000 -0.350218
vn -0.936668 -0.000000 -0.350218
s 1
g player
usemtl initialShadingGroup
f 1/1/1 2/2/2 5/5/3 4/4/4
f 2/2/2 3/3/5 6/6/6 5/5/3
s 2
f 4/4/7 5/5/8 8/8/9 7/7/10
f 5/5/8 6/6/11 9/9/12 8/8/9
s 3
f 7/7/13 8/8/14 11/11/15 10/10/16
f 8/8/14 9/9/17 12/12/18 11/11/15
s 4
f 10/10/19 11/11/20 2/14/21 1/13/22
f 11/11/20 12/12/23 3/15/24 2/14/21
s off
f 3/3/25 12/16/26 9/17/27 6/6/28
f 10/18/29 1/1/30 4/4/31 7/19/32
